<svg xmlns="http://www.w3.org/2000/svg" viewBox="0 0 496.98 496.98"><defs><style>.cls-1{fill:#fff;stroke:#efb026;stroke-width:2px;}.cls-1,.cls-20,.cls-21,.cls-5{stroke-miterlimit:10;}.cls-2{fill:#fee6c0;opacity:0.28;}.cls-3{fill:#fcde64;}.cls-4{fill:#7c7c7c;}.cls-20,.cls-21,.cls-5{fill:none;}.cls-5{stroke:#7c7c7c;stroke-width:0.51px;}.cls-6{fill:#ece7a6;}.cls-7{fill:#f5a625;}.cls-8{fill:#b5b4b4;}.cls-9{fill:#1e1e1c;}.cls-10{fill:#989797;}.cls-11,.cls-14{fill:#e52029;}.cls-12,.cls-18{fill:#989898;}.cls-13{fill:#e98023;}.cls-14,.cls-18{font-size:108.24px;font-family:Eurostile-Reg, Eurostile;}.cls-15{letter-spacing:0.03em;}.cls-16{letter-spacing:0em;}.cls-17{letter-spacing:0.01em;}.cls-19{letter-spacing:0em;}.cls-20,.cls-21{stroke:#b5b4b4;stroke-width:4px;}.cls-21{stroke-dasharray:6.58 6.58;}</style></defs><title>Logo_Bikespot</title><g id="kader_app" data-name="kader app"><rect class="cls-1" x="1" y="1" width="494.98" height="494.98" rx="12"/></g><g id="kaart"><rect class="cls-2" x="0.9" y="270.56" width="301.33" height="6.67" rx="3.33"/><rect class="cls-2" x="0.9" y="471.23" width="301.33" height="6.67" rx="3.33"/><path class="cls-2" d="M518,378.72H223.32a3.33,3.33,0,0,0-3,1.89L24.68,467s-.52,4.23,1.31,6.57l198.79-87.63a3.59,3.59,0,0,0,.83-.54H518a3.34,3.34,0,0,0,0-6.67Z" transform="translate(-24.43 -20.83)"/><path class="cls-2" d="M520.24,246.53l-140-140L516.25,27.94a3.33,3.33,0,1,0-3.33-5.77L257.73,169.5,33.26,23.66a3.33,3.33,0,1,0-3.63,5.59L283.7,194.32a3.33,3.33,0,1,0,3.63-5.59L264,173.58l110.21-63.64,141.3,141.3a3.33,3.33,0,0,0,4.72-4.71Z" transform="translate(-24.43 -20.83)"/><path class="cls-3" d="M490.83,356.49a8.5,8.5,0,0,0-8.5,8.49c0,.09,0,.18,0,.27a8.54,8.54,0,0,0,.75,3.24l.82,1.42,6.92,12,6.91-12,.82-1.42a8.37,8.37,0,0,0,.76-3.24V365A8.49,8.49,0,0,0,490.83,356.49Z" transform="translate(-24.43 -20.83)"/></g><g id="Fiets"><rect class="cls-4" x="182.72" y="270.65" width="1.96" height="6.39" rx="0.89" transform="translate(-143.52 122.43) rotate(-32.82)"/><line class="cls-5" x1="81.04" y1="169.68" x2="120.09" y2="203.61"/><line class="cls-5" x1="74.91" y1="178.21" x2="119.75" y2="204.81"/><line class="cls-5" x1="72.52" y1="188.61" x2="121.97" y2="198.5"/><line class="cls-5" x1="70.3" y1="198.33" x2="123.33" y2="197.65"/><line class="cls-5" x1="69.45" y1="208.9" x2="126.74" y2="210.09"/><line class="cls-5" x1="70.47" y1="219.47" x2="129.13" y2="208.9"/><line class="cls-5" x1="75.25" y1="228.68" x2="122.31" y2="202.59"/><line class="cls-5" x1="80.7" y1="237.72" x2="124.02" y2="203.44"/><line class="cls-5" x1="87.18" y1="245.73" x2="131.18" y2="210.09"/><line class="cls-5" x1="120.73" y1="209.2" x2="105.09" y2="258.52"/><line class="cls-5" x1="95.2" y1="252.72" x2="133.14" y2="210.29"/><line class="cls-5" x1="115.15" y1="260.91" x2="124.02" y2="212.31"/><line class="cls-5" x1="124.87" y1="262.96" x2="132.88" y2="208.22"/><line class="cls-5" x1="125.11" y1="209.55" x2="145.84" y2="260.57"/><line class="cls-5" x1="135.44" y1="263.13" x2="136.8" y2="206.51"/><line class="cls-5" x1="155.56" y1="256.31" x2="127.43" y2="206.34"/><line class="cls-5" x1="163.92" y1="251.36" x2="130.58" y2="200.63"/><line class="cls-5" x1="171.59" y1="244.88" x2="137.49" y2="204.81"/><line class="cls-5" x1="177.9" y1="237.04" x2="125.88" y2="210.09"/><line class="cls-5" x1="185.57" y1="219.64" x2="138.83" y2="203.83"/><line class="cls-5" x1="187.45" y1="209.41" x2="147.89" y2="201.91"/><line class="cls-5" x1="186.6" y1="189.46" x2="143.97" y2="206.68"/><line class="cls-5" x1="178.41" y1="171.56" x2="133.05" y2="196.11"/><line class="cls-5" x1="171.76" y1="163.03" x2="135.28" y2="206.8"/><line class="cls-5" x1="163.24" y1="154.84" x2="137.04" y2="204.56"/><line class="cls-5" x1="155.73" y1="150.07" x2="127.77" y2="196.96"/><line class="cls-5" x1="145.67" y1="146.66" x2="126.4" y2="201.82"/><line class="cls-5" x1="134.93" y1="144.27" x2="134.42" y2="192.02"/><line class="cls-5" x1="124.02" y1="144.1" x2="135.44" y2="195.26"/><line class="cls-5" x1="114.64" y1="145.98" x2="121.63" y2="200.2"/><line class="cls-5" x1="105.09" y1="149.22" x2="125.04" y2="202.25"/><line class="cls-5" x1="94.69" y1="154.16" x2="130.32" y2="200.03"/><polyline class="cls-5" points="87.18 161.84 131.69 198.5 183.36 180.25"/><path class="cls-6" d="M153.43,154.7a70,70,0,1,0,70,70A70,70,0,0,0,153.43,154.7Zm-.28,132A61.83,61.83,0,1,1,215,224.86,61.83,61.83,0,0,1,153.15,286.69Z" transform="translate(-24.43 -20.83)"/><path class="cls-7" d="M153.15,163A61.83,61.83,0,1,0,215,224.86,61.83,61.83,0,0,0,153.15,163Zm.31,119.67a57.88,57.88,0,1,1,57.89-57.88A57.88,57.88,0,0,1,153.46,282.7Z" transform="translate(-24.43 -20.83)"/><rect class="cls-4" x="407.73" y="272.42" width="1.93" height="6.28" rx="0.88" transform="translate(-102.35 176.21) rotate(-24.82)"/><line class="cls-5" x1="370.93" y1="259.72" x2="357.97" y2="206"/><polyline class="cls-5" points="398.22 247.44 366.16 203.44 389.01 253.41"/><line class="cls-5" x1="410.66" y1="232.09" x2="362.24" y2="208.73"/><line class="cls-5" x1="414.76" y1="223.22" x2="364.45" y2="200.71"/><line class="cls-5" x1="419.53" y1="203.78" x2="363.09" y2="209.92"/><line class="cls-5" x1="418.68" y1="193.55" x2="365.3" y2="205.83"/><polyline class="cls-5" points="415.95 183.66 364.28 199.35 417.83 213.5"/><polyline class="cls-5" points="405.89 166.78 364.88 206.64 349.96 260.23"/><line class="cls-5" x1="412.2" y1="175.14" x2="364.11" y2="196.79"/><line class="cls-5" x1="399.24" y1="159.45" x2="364.28" y2="204.64"/><line class="cls-5" x1="391.39" y1="152.63" x2="363.94" y2="194.23"/><line class="cls-5" x1="382.53" y1="148.02" x2="356.95" y2="197.3"/><line class="cls-5" x1="371.78" y1="145.47" x2="367.18" y2="205.32"/><line class="cls-5" x1="351.49" y1="145.12" x2="359.51" y2="202.93"/><line class="cls-5" x1="341.26" y1="147.85" x2="349.28" y2="184.17"/><line class="cls-5" x1="331.2" y1="154.16" x2="362.58" y2="196.62"/><line class="cls-5" x1="323.53" y1="158.94" x2="350.3" y2="186.39"/><line class="cls-5" x1="315.85" y1="165.76" x2="353.54" y2="203.61"/><line class="cls-5" x1="310.23" y1="174.45" x2="350.3" y2="202.08"/><line class="cls-5" x1="305.79" y1="184.17" x2="358.65" y2="199.01"/><polyline class="cls-5" points="303.24 203.96 362.19 207.45 405.04 240.62"/><line class="cls-5" x1="303.92" y1="214.02" x2="362.32" y2="206.85"/><line class="cls-5" x1="306.99" y1="223.74" x2="356.44" y2="201.06"/><line class="cls-5" x1="311.59" y1="232.26" x2="353.88" y2="201.23"/><line class="cls-5" x1="316.54" y1="239.76" x2="364.28" y2="208.9"/><line class="cls-5" x1="340.92" y1="256.99" x2="353.54" y2="203.61"/><polyline class="cls-5" points="331.54 252.72 355.93 204.13 380.82 257.33"/><polyline class="cls-5" points="323.36 246.76 363.77 207.37 360.02 261.08"/><path class="cls-5" d="M443.62,278.67" transform="translate(-24.43 -20.83)"/><path class="cls-6" d="M385.64,154.87a68.72,68.72,0,1,0,68.72,68.72A68.72,68.72,0,0,0,385.64,154.87Zm-.28,129.65a60.74,60.74,0,1,1,60.73-60.73A60.73,60.73,0,0,1,385.36,284.52Z" transform="translate(-24.43 -20.83)"/><path class="cls-7" d="M385.36,163.05a60.74,60.74,0,1,0,60.73,60.74A60.73,60.73,0,0,0,385.36,163.05Zm.31,117.55a56.86,56.86,0,1,1,56.85-56.85A56.86,56.86,0,0,1,385.67,280.6Z" transform="translate(-24.43 -20.83)"/><polygon class="cls-8" points="142.6 203.1 124.7 203.27 123.26 207.31 125.21 210.6 139.53 211.29 142.6 203.1"/><circle class="cls-8" cx="142.47" cy="198.54" r="1.07"/><circle class="cls-8" cx="144.35" cy="198.54" r="1.07"/><circle class="cls-8" cx="140.68" cy="198.54" r="1.07"/><circle class="cls-8" cx="138.89" cy="198.54" r="1.07"/><circle class="cls-8" cx="136.93" cy="198.54" r="1.07"/><circle class="cls-8" cx="135.14" cy="198.54" r="1.07"/><circle class="cls-8" cx="133.48" cy="198.54" r="1.07"/><circle class="cls-8" cx="131.77" cy="198.54" r="1.07"/><circle class="cls-8" cx="130.07" cy="198.54" r="1.07"/><circle class="cls-8" cx="128.24" cy="198.54" r="1.07"/><circle class="cls-8" cx="126.49" cy="198.54" r="1.07"/><circle class="cls-8" cx="124.7" cy="198.54" r="1.07"/><circle class="cls-8" cx="123.12" cy="199.18" r="1.07"/><circle class="cls-8" cx="121.91" cy="200.4" r="1.07"/><circle class="cls-8" cx="120.92" cy="201.55" r="1.07"/><circle class="cls-8" cx="120.24" cy="203.04" r="1.07"/><circle class="cls-8" cx="119.82" cy="204.32" r="1.07"/><circle class="cls-8" cx="119.82" cy="206.11" r="1.07"/><circle class="cls-8" cx="120.2" cy="207.86" r="1.07"/><circle class="cls-8" cx="120.84" cy="209.52" r="1.07"/><circle class="cls-8" cx="121.78" cy="210.84" r="1.07"/><circle class="cls-8" cx="123.06" cy="211.99" r="1.07"/><circle class="cls-8" cx="124.63" cy="212.76" r="1.07"/><circle class="cls-8" cx="126.17" cy="213.53" r="1.07"/><circle class="cls-8" cx="127.79" cy="214.08" r="1.07"/><circle class="cls-8" cx="129.62" cy="214.59" r="1.07"/><circle class="cls-8" cx="131.37" cy="215.19" r="1.07"/><circle class="cls-8" cx="133.07" cy="215.7" r="1.07"/><circle class="cls-8" cx="134.91" cy="216.13" r="1.07"/><circle class="cls-8" cx="136.78" cy="216.64" r="1.07"/><circle class="cls-8" cx="138.57" cy="217.19" r="1.07"/><circle class="cls-8" cx="140.36" cy="217.62" r="1.07"/><circle class="cls-8" cx="142.03" cy="218.09" r="1.07"/><polygon class="cls-9" points="224.52 243.92 224.65 249.29 238.65 249.23 238.59 243.34 224.52 243.92"/><polygon class="cls-10" points="224.52 243.92 225.03 240.08 238.65 240.4 238.59 243.34 224.52 243.92"/><polygon class="cls-8" points="229.74 240.28 229.74 244.2 228.89 247.1 230.08 247.96 232.82 247.96 233.66 247.05 232.51 243.92 233.15 240.28 229.74 240.28"/><path class="cls-11" d="M273.14,222c-6.9-6-16.22-6.91-24.94-7.13l-75-1.87-11.26,17.73,7.68,14.66c.5,1,7.53,1.55,8.55,1.76l45.79,9.4c7.86,1.61,15.67,3.64,23.56,5,9,1.55,19.29,1.52,25.58-6.23C280.67,246,283.08,230.65,273.14,222Zm-48.47,5.15c5.45,1.87,5.79,5.28,5.79,5.28l-53-5.11Zm-2.9,16.2-42.63-7.68-5.8-3.06,57.29,5.79C228.93,244.22,221.77,243.37,221.77,243.37Z" transform="translate(-24.43 -20.83)"/><polygon class="cls-10" points="229.74 188.78 230.42 213.67 229.57 215.55 230.59 219.81 235.03 218.79 235.2 215.38 233.49 211.8 232.47 186.73 229.74 188.78"/><circle class="cls-9" cx="232.81" cy="218.79" r="2.22"/><polygon class="cls-9" points="223.6 181.28 223.09 187.75 238.44 189.12 239.46 182.47 223.6 181.28"/><polygon class="cls-10" points="223.6 181.28 222.75 178.72 238.78 179.57 239.46 182.47 223.6 181.28"/><circle class="cls-9" cx="127.57" cy="207" r="1.68"/><path class="cls-11" d="M198.92,106.1l25.57,13.13s10.07,4.6,16.72,1l13-4.09s5.45-6.31-6.48-9l-15.86-2.39s-15.18-3.07-23.36-7.5C208.47,97.23,197.55,97.4,198.92,106.1Z" transform="translate(-24.43 -20.83)"/><polygon class="cls-12" points="195.63 110.17 194.19 106.5 198.96 104.8 200.15 108.29 195.63 110.17"/><polygon class="cls-12" points="182.42 89.45 179.18 90.05 187.96 93.88 178.5 93.71 188.9 98.4 179.61 97.38 178.24 97.8 175.26 96.7 175 97.72 179.78 100.28 181.31 100.28 181.4 102.41 189.84 103 192.22 101.64 194.19 106.5 198.96 104.8 195.98 96.87 190.6 100.28 191.03 98.32 183.27 94.82 191.12 94.82 182.5 90.47 182.42 89.45"/><circle class="cls-12" cx="198.75" cy="101.51" r="3.45"/><path class="cls-13" d="M150.2,153a76.5,76.5,0,0,1,74.91,61h3.22a78.82,78.82,0,0,0-148.8-21.15H83A76.46,76.46,0,0,1,150.2,153Z" transform="translate(-24.43 -20.83)"/><polygon class="cls-8" points="72.86 150.75 123.59 207.79 124.7 203.27 74.56 148.53 72.86 150.75"/><path class="cls-8" d="M218.53,131.85l-8.53,7.5-91.57-9.89c-10.91,3.24-8.87,13.64-8.87,13.64l6.82,15,28,60.7,3.58,5.72,6.65-.35,66.67-90Zm-64.89,87-2.73,3.24-2.81-2.56L114,144.64s-4.44-10.92,8.18-12.11l86.46,9.89Z" transform="translate(-24.43 -20.83)"/><polygon class="cls-8" points="194.1 111.02 221.56 194.24 227.78 194.24 226.33 188.1 223.09 187.75 223.6 181.28 222.58 178.03 200.75 108.12 194.1 111.02"/><path class="cls-8" d="M344.71,112.24l-6.82,2.38.51,4.27-16.54,31.88C309.76,177.72,277.53,183,277.53,183L245,187.61l-2.56-1.71,2.39,6.14c54-5.29,64.62-18.76,64.62-18.76l3.76,3.07-43.32,43.14,4.86,4.27,74.1-73.84,1.36,1.54a8.21,8.21,0,0,0,6.31-2.39Zm-27.79,60.87L313,169c8.86-4.26,27.28-44.51,27.28-44.51l6.14,18.42Z" transform="translate(-24.43 -20.83)"/><path class="cls-13" d="M313.54,214.7a76.5,76.5,0,0,1,73.86-62.3l.6-3.17A78.85,78.85,0,0,0,307.65,233h4.66A76.55,76.55,0,0,1,313.54,214.7Z" transform="translate(-24.43 -20.83)"/><polygon class="cls-8" points="329.67 139.33 345.01 183.49 361.38 207.88 364.62 208.9 366.67 204.81 349.62 181.79 335.12 136.94 329.67 139.33"/><polygon class="cls-8" points="287.55 188.44 359.85 201.4 361.72 207.02 286.18 191.85 287.55 188.44"/><polygon class="cls-8" points="328.13 139.16 325.74 130.63 332.05 128.24 336.15 136.94 328.13 139.16"/><circle class="cls-9" cx="363.09" cy="205.15" r="1.68"/><polygon class="cls-9" points="313.47 93.8 310.91 91.75 312.61 87.32 317.9 85.95 320.97 88.68 320.29 91.92 313.47 93.8"/><path class="cls-8" d="M337,108.14l-6.48-21.31,3.92-1.37L336,89.22,347.27,81l1.19-4.6s-10.57,2-11.34,1.28a14.4,14.4,0,0,1-1.72-2.63s-.51-2.36-.07-2.3,11.43-1.13,11.43-1.13,4.26,0,5.12,3.41l2.64-7.59s1.4-3.26-2.94-3.7l-11-.3L342,55.28c2.61.34,5.22.63,7.82,1,1.57.2,3.45.13,4.8,1a11.38,11.38,0,0,1,4.54,5.37,9.13,9.13,0,0,1-.1,6.29L355.29,79.5s-1.71,3.75-4.27,3.75c0,0,2.73.85-12.79,13.64l4.1,9.89Z" transform="translate(-24.43 -20.83)"/><path class="cls-13" d="M319,54.43l23,.85s3.42,6-1.36,8.19l-22.34-.69Z" transform="translate(-24.43 -20.83)"/><ellipse class="cls-11" cx="318.52" cy="58.57" rx="4.22" ry="3.52" transform="translate(223.25 353.76) rotate(-87.78)"/><path class="cls-13" d="M333,73l-18.61,2.53s-1.88,3.58.51,5.63l19.27-3.07S332.14,75.6,333,73Z" transform="translate(-24.43 -20.83)"/><path class="cls-11" d="M314.36,75.57l-1.79.22s-1.6,3.32.64,5.62l1.66-.21S312.76,78.24,314.36,75.57Z" transform="translate(-24.43 -20.83)"/><path class="cls-11" d="M344.8,69.52,331,72.59l-.39-3.33s7-7.16,13.3-2Z" transform="translate(-24.43 -20.83)"/><path class="cls-11" d="M333.8,71.57s-2.9,2.38.34,6.56l3-.42s-3.7-3.71-.89-7.42Z" transform="translate(-24.43 -20.83)"/><polygon class="cls-9" points="357.12 122.61 362.24 201.4 365.31 203.78 360.19 120.57 357.12 122.61"/><path class="cls-11" d="M352.22,109,359,144.81c5.06.81,10.15,2.35,15.31,2.45a84.42,84.42,0,0,0,10.27-.91,97.17,97.17,0,0,1,10.52-.4,23.91,23.91,0,0,0,6.27-.31,5.59,5.59,0,0,0,3.74-3.42c.88-2.15.31-4,.27-6.21s.8-4.55,1.28-6.69.92-4,1.4-6.07c1-4.16,2-8.33,3.39-12.39.27-.81,1.25-4.84,2.46-4.93C413.94,105.93,362.79,109.68,352.22,109Z" transform="translate(-24.43 -20.83)"/><path class="cls-13" d="M352.22,109l-3.76-1.71,2.73-8.18,66.17-2s3.07,8.53-3.41,8.87C414,105.93,360.06,111.72,352.22,109Z" transform="translate(-24.43 -20.83)"/></g><g id="Tekst"><text class="cls-14" transform="translate(56 354.02)">An<tspan class="cls-15" x="121.34" y="0">t</tspan><tspan class="cls-16" x="160.31" y="0">w</tspan><tspan x="233.05" y="0">e</tspan><tspan class="cls-17" x="287.49" y="0">r</tspan><tspan x="331.11" y="0">p</tspan><tspan x="0" y="91">by</tspan></text><text class="cls-18" transform="translate(258.41 445.06)">bi<tspan class="cls-19" x="75.66" y="0">k</tspan><tspan x="122.1" y="0">e</tspan></text><line class="cls-20" x1="149.23" y1="443.23" x2="152.73" y2="443.23"/><line class="cls-21" x1="159.31" y1="443.23" x2="248.11" y2="443.23"/><line class="cls-20" x1="251.4" y1="443.23" x2="254.9" y2="443.23"/></g></svg>