<?xml version="1.0" encoding="utf-8"?>
<!-- Generator: Adobe Illustrator 23.0.1, SVG Export Plug-In . SVG Version: 6.00 Build 0)  -->
<svg version="1.1" xmlns="http://www.w3.org/2000/svg" xmlns:xlink="http://www.w3.org/1999/xlink" x="0px" y="0px"
	 viewBox="0 0 841.89 595.28" style="enable-background:new 0 0 841.89 595.28;" xml:space="preserve">
<style type="text/css">
	.st0{display:none;}
	.st1{fill:#7C7C7B;}
	.st2{fill:none;stroke:#7C7C7B;stroke-miterlimit:10;}
	.st3{fill:#ECE7A6;}
	.st4{fill:#F4A524;}
	.st5{fill:#35EDE2;}
	.st6{fill:#B4B4B4;}
	.st7{fill:#1D1D1B;}
	.st8{fill:#979696;}
	.st9{fill:#ED1624;}
	.st10{fill:#19B6B4;}
	.st11{fill:#979797;}
	.st12{fill:#E98024;}
	.st13{fill:#1EDAB4;}
	.st14{fill:#F2C446;}
	.st15{fill:#F0B027;}
	.st16{fill:#FFFFFF;stroke:#19B6B4;stroke-miterlimit:10;}
</style>
<g id="Laag_1" class="st0">
</g>
<g id="achterwiel">
	<path class="st1" d="M252.97,506.44L252.97,506.44c-0.89,0.57-2.08,0.31-2.65-0.57l-4.7-7.28c-0.57-0.89-0.31-2.08,0.57-2.65l0,0
		c0.89-0.57,2.08-0.31,2.65,0.57l4.7,7.28C254.11,504.68,253.86,505.87,252.97,506.44z"/>
	<g>
		<line class="st2" x1="96.67" y1="338.28" x2="173" y2="404.61"/>
		<line class="st2" x1="84.67" y1="354.94" x2="172.33" y2="406.94"/>
		<line class="st2" x1="80" y1="375.28" x2="176.67" y2="394.61"/>
		<line class="st2" x1="75.67" y1="394.28" x2="179.33" y2="392.94"/>
		<line class="st2" x1="74" y1="414.94" x2="186" y2="417.28"/>
		<line class="st2" x1="76" y1="435.61" x2="190.67" y2="414.94"/>
		<line class="st2" x1="85.33" y1="453.61" x2="177.33" y2="402.61"/>
		<line class="st2" x1="96" y1="471.28" x2="180.67" y2="404.28"/>
		<line class="st2" x1="108.67" y1="486.94" x2="194.67" y2="417.28"/>
		<line class="st2" x1="174.25" y1="415.53" x2="143.67" y2="511.94"/>
		<line class="st2" x1="124.33" y1="500.61" x2="198.5" y2="417.65"/>
		<line class="st2" x1="163.33" y1="516.61" x2="180.67" y2="421.61"/>
		<line class="st2" x1="182.33" y1="520.61" x2="198" y2="413.61"/>
		<line class="st2" x1="182.81" y1="416.21" x2="223.33" y2="515.94"/>
		<line class="st2" x1="203" y1="520.94" x2="205.67" y2="410.28"/>
		<line class="st2" x1="242.33" y1="507.61" x2="187.33" y2="409.94"/>
		<line class="st2" x1="258.67" y1="497.94" x2="193.5" y2="398.78"/>
		<line class="st2" x1="273.67" y1="485.28" x2="207" y2="406.94"/>
		<line class="st2" x1="286" y1="469.94" x2="184.31" y2="417.28"/>
		<line class="st2" x1="301" y1="435.94" x2="209.63" y2="405.03"/>
		<line class="st2" x1="304.67" y1="415.94" x2="227.33" y2="401.28"/>
		<line class="st2" x1="303" y1="376.94" x2="219.67" y2="410.61"/>
		<line class="st2" x1="287" y1="341.94" x2="198.33" y2="389.94"/>
		<line class="st2" x1="274" y1="325.28" x2="202.69" y2="410.84"/>
		<line class="st2" x1="257.33" y1="309.28" x2="206.13" y2="406.46"/>
		<line class="st2" x1="242.67" y1="299.94" x2="188" y2="391.61"/>
		<line class="st2" x1="223" y1="293.28" x2="185.33" y2="401.11"/>
		<line class="st2" x1="202" y1="288.61" x2="201" y2="381.94"/>
		<line class="st2" x1="180.67" y1="288.28" x2="203" y2="388.28"/>
		<line class="st2" x1="162.33" y1="291.94" x2="176" y2="397.94"/>
		<line class="st2" x1="143.67" y1="298.28" x2="182.67" y2="401.94"/>
		<line class="st2" x1="123.33" y1="307.94" x2="193" y2="397.61"/>
		<polyline class="st2" points="108.67,322.94 195.67,394.61 296.67,358.94 		"/>
	</g>
	<path class="st3" d="M190.43,268.28c-75.53,0-136.76,61.23-136.76,136.76s61.23,136.76,136.76,136.76s136.76-61.23,136.76-136.76
		S265.96,268.28,190.43,268.28z M189.86,526.29C123.11,526.29,69,472.18,69,405.43s54.11-120.86,120.86-120.86
		s120.86,54.11,120.86,120.86S256.61,526.29,189.86,526.29z"/>
	<path class="st4" d="M189.86,284.57C123.11,284.57,69,338.68,69,405.43s54.11,120.86,120.86,120.86s120.86-54.11,120.86-120.86
		S256.61,284.57,189.86,284.57z M190.48,518.5c-62.49,0-113.15-50.66-113.15-113.15S127.99,292.2,190.48,292.2
		s113.15,50.66,113.15,113.15S252.97,518.5,190.48,518.5z"/>
</g>
<g id="voorwiel">
	<g>
		<path class="st1" d="M691.97,510.11L691.97,510.11c-0.94,0.43-2.06,0.02-2.5-0.92l-3.57-7.73c-0.43-0.94-0.02-2.06,0.92-2.5l0,0
			c0.94-0.43,2.06-0.02,2.5,0.92l3.57,7.73C693.32,508.55,692.91,509.68,691.97,510.11z"/>
		<line class="st2" x1="663.33" y1="514.28" x2="638" y2="409.28"/>
		<polyline class="st2" points="716.67,490.28 654,404.28 698.67,501.94 		"/>
		<line class="st2" x1="741" y1="460.28" x2="646.33" y2="414.61"/>
		<line class="st2" x1="749" y1="442.94" x2="650.67" y2="398.94"/>
		<line class="st2" x1="758.33" y1="404.94" x2="648" y2="416.94"/>
		<line class="st2" x1="756.67" y1="384.94" x2="652.33" y2="408.94"/>
		<polyline class="st2" points="751.33,365.61 650.33,396.28 755,423.94 		"/>
		<polyline class="st2" points="731.67,332.61 651.5,410.53 622.33,515.28 		"/>
		<line class="st2" x1="744" y1="348.94" x2="650" y2="391.28"/>
		<line class="st2" x1="718.67" y1="318.28" x2="650.33" y2="406.61"/>
		<line class="st2" x1="703.33" y1="304.94" x2="649.67" y2="386.28"/>
		<line class="st2" x1="686" y1="295.94" x2="636" y2="392.28"/>
		<line class="st2" x1="665" y1="290.94" x2="656" y2="407.94"/>
		<line class="st2" x1="625.33" y1="290.28" x2="641" y2="403.28"/>
		<line class="st2" x1="605.33" y1="295.61" x2="621" y2="366.61"/>
		<line class="st2" x1="585.67" y1="307.94" x2="647" y2="390.94"/>
		<line class="st2" x1="570.67" y1="317.28" x2="623" y2="370.94"/>
		<line class="st2" x1="555.67" y1="330.61" x2="629.33" y2="404.61"/>
		<line class="st2" x1="544.67" y1="347.61" x2="623" y2="401.61"/>
		<line class="st2" x1="536" y1="366.61" x2="639.33" y2="395.61"/>
		<polyline class="st2" points="531,405.28 646.25,412.11 730,476.94 		"/>
		<line class="st2" x1="532.33" y1="424.94" x2="646.5" y2="410.94"/>
		<line class="st2" x1="538.33" y1="443.94" x2="635" y2="399.61"/>
		<line class="st2" x1="547.33" y1="460.61" x2="630" y2="399.94"/>
		<line class="st2" x1="557" y1="475.28" x2="650.33" y2="414.94"/>
		<line class="st2" x1="604.67" y1="508.94" x2="629.33" y2="404.61"/>
		<polyline class="st2" points="586.33,500.61 634,405.61 682.67,509.61 		"/>
		<polyline class="st2" points="570.33,488.94 649.33,411.94 642,516.94 		"/>
	</g>
	<path class="st3" d="M644.33,268.61c-74.19,0-134.33,60.14-134.33,134.33s60.14,134.33,134.33,134.33s134.33-60.14,134.33-134.33
		S718.52,268.61,644.33,268.61z M643.78,522.05c-65.57,0-118.72-53.15-118.72-118.72s53.15-118.72,118.72-118.72
		S762.5,337.76,762.5,403.33S709.35,522.05,643.78,522.05z"/>
	<path class="st4" d="M643.78,284.61c-65.57,0-118.72,53.15-118.72,118.72s53.15,118.72,118.72,118.72S762.5,468.9,762.5,403.33
		S709.35,284.61,643.78,284.61z M644.39,514.4c-61.38,0-111.14-49.76-111.14-111.14s49.76-111.14,111.14-111.14
		c61.38,0,111.14,49.76,111.14,111.14S705.77,514.4,644.39,514.4z"/>
</g>
<g id="fietskas_x2F__trappers">
	<polygon class="st6" points="217,403.61 182,403.94 179.19,411.84 183,418.28 211,419.61 	"/>
	<g>
		<circle class="st6" cx="216.75" cy="394.69" r="2.08"/>
		<circle class="st6" cx="220.42" cy="394.69" r="2.08"/>
		<circle class="st6" cx="213.25" cy="394.69" r="2.08"/>
		<circle class="st6" cx="209.75" cy="394.69" r="2.08"/>
		<circle class="st6" cx="205.92" cy="394.69" r="2.08"/>
		<circle class="st6" cx="202.42" cy="394.69" r="2.08"/>
		<circle class="st6" cx="199.17" cy="394.69" r="2.08"/>
		<circle class="st6" cx="195.83" cy="394.69" r="2.08"/>
		<circle class="st6" cx="192.5" cy="394.69" r="2.08"/>
		<circle class="st6" cx="188.92" cy="394.69" r="2.08"/>
		<circle class="st6" cx="185.5" cy="394.69" r="2.08"/>
		<circle class="st6" cx="182" cy="394.69" r="2.08"/>
		<circle class="st6" cx="178.92" cy="395.94" r="2.08"/>
		<circle class="st6" cx="176.54" cy="398.32" r="2.08"/>
		<circle class="st6" cx="174.63" cy="400.57" r="2.08"/>
		<circle class="st6" cx="173.29" cy="403.48" r="2.08"/>
		<circle class="st6" cx="172.46" cy="405.98" r="2.08"/>
		<circle class="st6" cx="172.46" cy="409.48" r="2.08"/>
		<circle class="st6" cx="173.21" cy="412.9" r="2.08"/>
		<circle class="st6" cx="174.46" cy="416.15" r="2.08"/>
		<circle class="st6" cx="176.29" cy="418.73" r="2.08"/>
		<circle class="st6" cx="178.79" cy="420.98" r="2.08"/>
		<circle class="st6" cx="181.88" cy="422.48" r="2.08"/>
		<circle class="st6" cx="184.88" cy="423.98" r="2.08"/>
		<circle class="st6" cx="188.04" cy="425.07" r="2.08"/>
		<circle class="st6" cx="191.63" cy="426.07" r="2.08"/>
		<circle class="st6" cx="195.04" cy="427.23" r="2.08"/>
		<circle class="st6" cx="198.38" cy="428.23" r="2.08"/>
		<circle class="st6" cx="201.96" cy="429.07" r="2.08"/>
		<circle class="st6" cx="205.63" cy="430.07" r="2.08"/>
		<circle class="st6" cx="209.13" cy="431.15" r="2.08"/>
		<circle class="st6" cx="212.63" cy="431.98" r="2.08"/>
		<circle class="st6" cx="215.88" cy="432.9" r="2.08"/>
	</g>
	<polygon class="st7" points="377.13,483.4 377.38,493.9 404.75,493.78 404.63,482.28 	"/>
	<polygon class="st8" points="377.13,483.4 378.13,475.9 404.75,476.53 404.63,482.28 	"/>
	<polygon class="st6" points="387.33,476.28 387.33,483.94 385.67,489.61 388,491.29 393.36,491.29 395,489.53 392.75,483.4 
		394,476.28 	"/>
	<path class="st9" d="M424.42,399.88c-13.48-11.7-31.72-13.51-48.76-13.94c-0.13,0-146.67-3.67-146.67-3.67l-22,34.67
		c0,0,15,28.66,15,28.67c0.98,1.88,14.74,3.02,16.73,3.43c29.84,6.12,59.67,12.25,89.51,18.37c15.35,3.15,30.62,7.12,46.05,9.76
		c17.67,3.02,37.71,2.96,50-12.18C439.15,446.7,443.85,416.74,424.42,399.88z M329.67,409.94c10.67,3.67,11.33,10.33,11.33,10.33
		l-103.67-10L329.67,409.94z M324,441.61l-83.33-15l-11.33-6l112,11.33C338,443.28,324,441.61,324,441.61z"/>
	<polygon class="st8" points="387.33,375.61 388.67,424.28 387,427.94 389,436.28 397.67,434.28 398,427.61 394.67,420.61 
		392.67,371.61 	"/>
	<circle class="st7" cx="393.33" cy="434.28" r="4.33"/>
	<polygon class="st7" points="375.33,360.94 374.33,373.61 404.33,376.28 406.33,363.28 	"/>
	<polygon class="st8" points="375.33,360.94 373.67,355.94 405,357.61 406.33,363.28 	"/>
	<circle class="st7" cx="187.61" cy="411.22" r="3.28"/>
</g>
<g id="zadel">
	<path class="st9" d="M279.33,173.28l50,25.67c0,0,19.67,9,32.67,2l25.33-8c0,0,10.67-12.33-12.67-17.67l-31-4.67
		c0,0-29.67-6-45.67-14.67C298,155.94,276.67,156.28,279.33,173.28z"/>
	<polygon class="st11" points="320.67,221.94 317.83,214.78 327.17,211.44 329.5,218.28 	"/>
	<polygon class="st11" points="294.83,181.44 288.5,182.61 305.67,190.11 287.17,189.78 307.5,198.94 289.33,196.94 286.67,197.78 
		280.83,195.61 280.33,197.61 289.67,202.61 292.67,202.61 292.83,206.78 309.33,207.94 314,205.28 317.83,214.78 327.17,211.44 
		321.33,195.94 310.83,202.61 311.67,198.78 296.5,191.94 311.83,191.94 295,183.44 	"/>
	<circle class="st11" cx="326.75" cy="205.03" r="6.75"/>
</g>
<g id="metaal_fiets">
	<path class="st12" d="M184.1,264.97c72.22,0,132.48,51.22,146.44,119.31h6.3c-12.07-73.03-75.5-128.74-151.96-128.74
		c-61.2,0-114.07,35.7-138.92,87.4h6.83C78.15,296.49,127.44,264.97,184.1,264.97z"/>
	<polygon class="st6" points="80.67,301.28 179.83,412.78 182,403.94 84,296.94 	"/>
	<path class="st6" d="M317.67,223.61L301,238.28l-179-19.33c-21.33,6.33-17.33,26.67-17.33,26.67L118,274.94l54.67,118.67l7,11.17
		l13-0.67L323,228.28L317.67,223.61z M190.83,393.61l-5.33,6.33l-5.5-5l-66.67-146.33c0,0-8.67-21.33,16-23.67l169,19.33
		L190.83,393.61z"/>
	<polygon class="st6" points="317.67,223.61 371.33,386.28 383.5,386.28 380.67,374.28 374.33,373.61 375.33,360.94 373.33,354.61 
		330.67,217.94 	"/>
	<path class="st6" d="M564.33,185.28L551,189.94l1,8.33l-32.33,62.33c-23.67,52.67-86.67,63-86.67,63l-63.67,9l-5-3.33l4.67,12
		c105.67-10.33,126.33-36.67,126.33-36.67l7.33,6L418,394.94l9.5,8.33l144.83-144.33l2.67,3c8,0.33,12.33-4.67,12.33-4.67
		L564.33,185.28z M510,304.28l-7.67-8c17.33-8.33,53.33-87,53.33-87l12,36L510,304.28z"/>
	<path class="st12" d="M503.4,385.57c13.38-70.97,74.88-120.7,144.38-121.79l1.17-6.19c-74.01-1.67-140.5,50.34-154.67,125.47
		c-2.43,12.89-3.17,25.7-2.39,38.22h9.11C500.37,409.57,501.13,397.6,503.4,385.57z"/>
	<polygon class="st6" points="582.67,278.94 612.67,365.28 644.67,412.94 651,414.94 655,406.94 621.67,361.94 593.33,274.28 	"/>
	<polygon class="st6" points="500.33,374.94 641.67,400.28 645.33,411.28 497.67,381.61 	"/>
	<polygon class="st6" points="579.67,278.61 575,261.94 587.33,257.28 595.33,274.28 	"/>
	<circle class="st7" cx="648" cy="407.61" r="3.28"/>
	<polygon class="st7" points="551,189.94 546,185.94 549.33,177.28 559.67,174.61 565.67,179.94 564.33,186.28 	"/>
	<path class="st6" d="M549.33,177.28l-12.67-41.67l7.67-2.67l3,7.33l22-16l2.33-9c0,0-20.67,4-22.17,2.5s-3.38-5.13-3.38-5.13
		s-1-4.63-0.13-4.5s22.33-2.21,22.33-2.21s8.33,0,10,6.67l5.17-14.83c0,0,2.75-6.38-5.75-7.25l-21.42-0.58c0,0,2.67-16,2.67-16
		c5.09,0.65,10.19,1.23,15.28,1.89c3.06,0.4,6.73,0.26,9.38,1.99c3.86,2.52,7.25,6.13,8.87,10.5c1.48,4,1.24,8.32-0.2,12.3
		L585,121.28c0,0-3.33,7.33-8.33,7.33c0,0,5.33,1.67-25,26.67l8,19.33L549.33,177.28z"/>
	<path class="st12" d="M514,72.28l45,1.67c0,0,6.67,11.67-2.67,16l-43.67-1.33L514,72.28z"/>
	
		<ellipse transform="matrix(0.0387 -0.9993 0.9993 0.0387 412.9731 590.0088)" class="st9" cx="513.14" cy="80.37" rx="8.25" ry="6.87"/>
	<path class="st12" d="M541.38,108.65L505,113.61c0,0-3.67,7,1,11l37.67-6C543.67,118.61,539.75,113.65,541.38,108.65z"/>
	<path class="st9" d="M505,113.61l-3.5,0.42c0,0-3.13,6.5,1.25,11l3.25-0.42C506,124.61,501.88,118.82,505,113.61z"/>
	<path class="st9" d="M564.5,101.78l-27,6l-0.75-6.5c0,0,13.75-14,26-4L564.5,101.78z"/>
	<path class="st9" d="M543,105.78c0,0-5.67,4.67,0.67,12.83l5.83-0.83c0,0-7.25-7.25-1.75-14.5L543,105.78z"/>
</g>
<g id="fietsmand">
	<polygon class="st7" points="636.33,246.28 646.33,400.28 652.33,404.94 642.33,242.28 	"/>
	<path class="st9" d="M579,178.94c0,0,13.33,70,13.33,70c9.9,1.58,19.85,4.6,29.93,4.79c6.72,0.13,13.39-1.09,20.08-1.77
		c6.83-0.7,13.71-0.83,20.57-0.79c4.11,0.02,8.26,0.45,12.26-0.6c3.45-0.9,5.99-3.44,7.32-6.69c1.71-4.2,0.6-7.81,0.53-12.14
		c-0.08-4.29,1.56-8.88,2.49-13.07c0.88-3.96,1.8-7.91,2.74-11.86c1.95-8.13,3.97-16.29,6.62-24.23c0.53-1.58,2.45-9.46,4.8-9.63
		C699.67,172.94,599.67,180.28,579,178.94z"/>
	<path class="st12" d="M579,178.94l-7.33-3.33l5.33-16l129.33-4c0,0,6,16.67-6.67,17.33C699.67,172.94,594.33,184.28,579,178.94z"/>
</g>
<g id="logo_ik">
</g>
<g id="logo_fiets">
</g>
</svg>
